<svg xmlns="http://www.w3.org/2000/svg" version="1.1" xmlns:xlink="http://www.w3.org/1999/xlink" xmlns:svgjs="http://svgjs.dev/svgjs" width="1000" height="315" viewBox="0 0 1000 315"><g transform="matrix(1,0,0,1,-0.6060606060606801,0.4681587651598704)"><svg viewBox="0 0 396 125" data-background-color="#ffffff" preserveAspectRatio="xMidYMid meet" height="315" width="1000" xmlns="http://www.w3.org/2000/svg" xmlns:xlink="http://www.w3.org/1999/xlink"><g id="tight-bounds" transform="matrix(1,0,0,1,0.24000000000003752,-0.18577728776185154)"><svg viewBox="0 0 395.5199999999999 125.37155457552369" height="125.37155457552369" width="395.5199999999999"><g><svg viewBox="0 0 395.5199999999999 125.37155457552369" height="125.37155457552369" width="395.5199999999999"><g><svg viewBox="0 0 395.5199999999999 125.37155457552369" height="125.37155457552369" width="395.5199999999999"><g id="textblocktransform"><svg viewBox="0 0 395.5199999999999 125.37155457552369" height="125.37155457552369" width="395.5199999999999" id="textblock"><g><svg viewBox="0 0 395.5199999999999 125.37155457552369" height="125.37155457552369" width="395.5199999999999"><g><svg viewBox="0 0 395.5199999999999 125.37155457552369" height="125.37155457552369" width="395.5199999999999"><g transform="matrix(1,0,0,1,0,0)"><svg width="395.5199999999999" viewBox="5 -28.75 90.7 28.75" height="125.37155457552369" data-palette-color="#d3016a"><path d="M5-28.75L5-28.75 21-28.75 21-22.85 11.3-22.85 11.3-17.2 21-17.2 21-11.35 11.3-11.35 11.3 0 5 0 5-28.75ZM39.45 0L39.45 0 39.45-11.9 34.75-14.35 39.45-16.6 39.45-25.3 33.55-28.75 23.25-28.75 23.25-22.85 33.15-22.85 33.15-17.2 23.25-17.2 23.25-11.35 33.15-11.35 33.15 0 39.45 0ZM46.95-28.75L46.95-28.75 53.25-28.75 53.25 0 46.95 0 46.95-28.75ZM61.25-25.3L61.25-25.3 67.09-28.75 77.45-28.75 77.45-23.1 67.55-23.1 67.55-5.85 77.25-5.85 77.25 0 67.09 0 61.25-3.4 61.25-25.3ZM95.7-25.3L95.7-25.3 90.05-28.75 79.7-28.75 79.7-23.1 89.4-23.1 89.4-5.85 79.7-5.85 79.7 0 90.05 0 95.7-3.4 95.7-25.3Z" opacity="1" transform="matrix(1,0,0,1,0,0)" fill="#d3016a" class="wordmark-text-0" data-fill-palette-color="primary" id="text-0"></path></svg></g></svg></g></svg></g></svg></g></svg></g><g></g></svg></g><defs></defs></svg><rect width="395.5199999999999" height="125.37155457552369" fill="none" stroke="none" visibility="hidden"></rect></g></svg></g></svg>