<svg xmlns="http://www.w3.org/2000/svg" version="1.1" xmlns:xlink="http://www.w3.org/1999/xlink" xmlns:svgjs="http://svgjs.dev/svgjs" width="2000" height="252" viewBox="0 0 2000 252"><g transform="matrix(1,0,0,1,-1.2121212121212466,0.8781226477750295)"><svg viewBox="0 0 396 50" data-background-color="#ffffff" preserveAspectRatio="xMidYMid meet" height="252" width="2000" xmlns="http://www.w3.org/2000/svg" xmlns:xlink="http://www.w3.org/1999/xlink"><g id="tight-bounds" transform="matrix(1,0,0,1,0.2400000000000091,-0.174230684082346)"><svg viewBox="0 0 395.52 50.3484613681647" height="50.3484613681647" width="395.52"><g><svg viewBox="0 0 395.52 50.3484613681647" height="50.3484613681647" width="395.52"><g><svg viewBox="0 0 395.52 50.3484613681647" height="50.3484613681647" width="395.52"><g id="textblocktransform"><svg viewBox="0 0 395.52 50.3484613681647" height="50.3484613681647" width="395.52" id="textblock"><g><svg viewBox="0 0 395.52 50.3484613681647" height="50.3484613681647" width="395.52"><g><svg viewBox="0 0 395.52 50.3484613681647" height="50.3484613681647" width="395.52"><g transform="matrix(1,0,0,1,0,0)"><svg width="395.52" viewBox="5 -28.75 225.84 28.75" height="50.3484613681647" data-palette-color="#d3016a"><path d="M5-28.75L5-28.75 21-28.75 21-22.85 11.3-22.85 11.3-17.2 21-17.2 21-11.35 11.3-11.35 11.3 0 5 0 5-28.75ZM39.45 0L39.45 0 39.45-11.9 34.75-14.35 39.45-16.6 39.45-25.3 33.55-28.75 23.25-28.75 23.25-22.85 33.15-22.85 33.15-17.2 23.25-17.2 23.25-11.35 33.15-11.35 33.15 0 39.45 0ZM46.95-28.75L46.95-28.75 53.25-28.75 53.25 0 46.95 0 46.95-28.75ZM61.25-25.3L61.25-25.3 67.09-28.75 77.45-28.75 77.45-23.1 67.55-23.1 67.55-5.85 77.25-5.85 77.25 0 67.09 0 61.25-3.4 61.25-25.3ZM95.7-25.3L95.7-25.3 90.05-28.75 79.7-28.75 79.7-23.1 89.4-23.1 89.4-5.85 79.7-5.85 79.7 0 90.05 0 95.7-3.4 95.7-25.3ZM100.59 0L100.59-6.9 107.49-6.9 107.49 0 100.59 0ZM116.49 0L116.49-28.75 132.49-28.75 132.49-23.1 122.79-23.1 122.79-5.85 132.49-5.85 132.49 0 116.49 0ZM150.94-3.4L150.94-25.3 145.29-28.75 134.94-28.75 134.94-23.1 144.64-23.1 144.64-5.85 134.94-5.85 134.94 0 145.29 0 150.94-3.4ZM159.94-28.75L159.94-28.75 175.94-28.75 175.94-22.85 166.24-22.85 166.24-17.2 175.94-17.2 175.94-11.5 166.24-11.5 166.24-5.65 175.74-5.65 175.74 0 159.94 0 159.94-28.75ZM178.39-5.65L178.39-5.65 178.39 0 194.39 0 194.39-5.65 178.39-5.65ZM194.39-22.85L194.39-22.85 194.39-28.75 178.19-28.75 178.19-22.85 194.39-22.85ZM186.29-11.5L186.29-11.5 186.29-17.2 178.19-17.2 178.19-11.5 186.29-11.5ZM202.09-28.75L202.09-28.75 212.39-11.5 212.39 0 196.39-26.9 202.09-28.75ZM225.19-28.75L225.19-28.75 214.84-11.5 214.84 0 230.84-26.9 225.19-28.75Z" opacity="1" transform="matrix(1,0,0,1,0,0)" fill="#d3016a" class="wordmark-text-0" data-fill-palette-color="primary" id="text-0"></path></svg></g></svg></g></svg></g></svg></g></svg></g><g></g></svg></g><defs></defs></svg><rect width="395.52" height="50.3484613681647" fill="none" stroke="none" visibility="hidden"></rect></g></svg></g></svg>