<?xml version="1.0" standalone="no"?>
<!DOCTYPE svg PUBLIC "-//W3C//DTD SVG 20010904//EN"
 "http://www.w3.org/TR/2001/REC-SVG-20010904/DTD/svg10.dtd">
<svg version="1.0" xmlns="http://www.w3.org/2000/svg"
 width="2000.000000pt" height="252.000000pt" viewBox="0 0 2000.000000 252.000000"
 preserveAspectRatio="xMidYMid meet">

<g transform="translate(0.000000,252.000000) scale(0.100000,-0.100000)"
fill="#000000" stroke="none">
<path d="M30 1260 l0 -1260 280 0 280 0 0 495 0 495 425 0 425 0 0 260 0 260
-425 0 -425 0 0 250 0 250 425 0 425 0 0 255 0 255 -705 0 -705 0 0 -1260z"/>
<path d="M1650 2265 l0 -255 435 0 435 0 0 -250 0 -250 -435 0 -435 0 0 -260
0 -260 435 0 435 0 0 -495 0 -495 275 0 275 0 -2 523 -3 522 -204 106 -204
107 129 62 c71 34 164 78 207 97 l77 36 0 386 0 386 -251 148 -251 147 -459 0
-459 0 0 -255z"/>
<path d="M3740 1260 l0 -1260 275 0 275 0 0 1260 0 1260 -275 0 -275 0 0
-1260z"/>
<path d="M5248 2372 l-248 -147 0 -967 0 -966 250 -146 251 -146 454 0 455 0
0 255 0 255 -430 0 -430 0 0 760 0 760 440 0 440 0 0 245 0 245 -467 -1 -468
0 -247 -147z"/>
<path d="M6630 2275 l0 -245 425 0 425 0 0 -760 0 -760 -425 0 -425 0 0 -255
0 -255 461 0 462 0 243 147 244 146 0 964 0 963 -67 43 c-38 24 -147 91 -244
150 l-176 107 -462 0 -461 0 0 -245z"/>
<path d="M9880 1260 l0 -1260 700 0 700 0 0 255 0 255 -425 0 -425 0 0 760 0
760 425 0 425 0 0 245 0 245 -700 0 -700 0 0 -1260z"/>
<path d="M11500 2275 l0 -245 430 0 430 0 0 -760 0 -760 -427 -2 -428 -3 -3
-252 -2 -253 464 0 465 0 238 143 238 143 3 970 2 970 -240 147 -241 147 -464
0 -465 0 0 -245z"/>
<path d="M13710 1260 l0 -1260 695 0 695 0 0 245 0 245 -420 0 -420 0 2 257 3
258 428 3 427 2 0 250 0 250 -430 0 -430 0 0 250 0 250 430 0 430 0 0 255 0
255 -705 0 -705 0 0 -1260z"/>
<path d="M15320 2265 l0 -255 715 0 715 0 0 255 0 255 -715 0 -715 0 0 -255z"/>
<path d="M17165 2443 c-126 -41 -231 -76 -233 -78 -2 -1 313 -534 700 -1184
l703 -1182 3 501 2 500 -452 760 c-364 611 -457 759 -473 759 -11 -1 -123 -35
-250 -76z"/>
<path d="M19011 1767 l-451 -753 2 -501 3 -502 699 1175 c384 646 697 1176
695 1179 -7 7 -466 155 -481 155 -9 0 -188 -288 -467 -753z"/>
<path d="M15320 1260 l0 -250 355 0 355 0 0 250 0 250 -355 0 -355 0 0 -250z"/>
<path d="M8470 300 l0 -300 305 0 305 0 0 300 0 300 -305 0 -305 0 0 -300z"/>
<path d="M15340 245 l0 -245 705 0 705 0 0 245 0 245 -705 0 -705 0 0 -245z"/>
</g>
</svg>
