<?xml version="1.0" encoding="UTF-8"?>
<!DOCTYPE svg PUBLIC "-//W3C//DTD SVG 1.1//EN" "http://www.w3.org/Graphics/SVG/1.1/DTD/svg11.dtd">
<svg xmlns="http://www.w3.org/2000/svg" version="1.1" width="2000px" height="252px" style="shape-rendering:geometricPrecision; text-rendering:geometricPrecision; image-rendering:optimizeQuality; fill-rule:evenodd; clip-rule:evenodd" xmlns:xlink="http://www.w3.org/1999/xlink">
<g><path style="opacity:0.99" fill="#d20069" d="M 2.5,-0.5 C 49.8333,-0.5 97.1667,-0.5 144.5,-0.5C 144.5,16.8333 144.5,34.1667 144.5,51.5C 115.833,51.5 87.1667,51.5 58.5,51.5C 58.5,67.8333 58.5,84.1667 58.5,100.5C 87.1667,100.5 115.833,100.5 144.5,100.5C 144.5,117.833 144.5,135.167 144.5,152.5C 115.833,152.5 87.1667,152.5 58.5,152.5C 58.5,185.5 58.5,218.5 58.5,251.5C 39.8333,251.5 21.1667,251.5 2.5,251.5C 2.5,167.5 2.5,83.5 2.5,-0.5 Z"/></g>
<g><path style="opacity:0.98" fill="#d20069" d="M 163.5,-0.5 C 195.167,-0.5 226.833,-0.5 258.5,-0.5C 274.521,9.2665 290.687,18.9332 307,28.5C 307.667,54.5 307.667,80.5 307,106.5C 293.756,112.872 280.59,119.372 267.5,126C 280.5,132.833 293.5,139.667 306.5,146.5C 307.5,181.494 307.833,216.494 307.5,251.5C 288.5,251.5 269.5,251.5 250.5,251.5C 250.5,218.5 250.5,185.5 250.5,152.5C 221.5,152.5 192.5,152.5 163.5,152.5C 163.5,135.167 163.5,117.833 163.5,100.5C 192.5,100.5 221.5,100.5 250.5,100.5C 250.5,84.1667 250.5,67.8333 250.5,51.5C 221.5,51.5 192.5,51.5 163.5,51.5C 163.5,34.1667 163.5,16.8333 163.5,-0.5 Z"/></g>
<g><path style="opacity:0.989" fill="#d2006a" d="M 372.5,-0.5 C 391.5,-0.5 410.5,-0.5 429.5,-0.5C 429.5,83.5 429.5,167.5 429.5,251.5C 410.5,251.5 391.5,251.5 372.5,251.5C 372.5,167.5 372.5,83.5 372.5,-0.5 Z"/></g>
<g><path style="opacity:0.985" fill="#d20069" d="M 547.5,-0.5 C 579.167,-0.5 610.833,-0.5 642.5,-0.5C 642.5,15.8333 642.5,32.1667 642.5,48.5C 613.5,48.5 584.5,48.5 555.5,48.5C 555.5,99.1667 555.5,149.833 555.5,200.5C 584.167,200.5 612.833,200.5 641.5,200.5C 641.5,217.5 641.5,234.5 641.5,251.5C 610.167,251.5 578.833,251.5 547.5,251.5C 531.479,241.734 515.313,232.067 499,222.5C 498.333,157.833 498.333,93.1667 499,28.5C 515.313,18.9332 531.479,9.2665 547.5,-0.5 Z"/></g>
<g><path style="opacity:0.991" fill="#d20069" d="M 661.5,-0.5 C 693.5,-0.5 725.5,-0.5 757.5,-0.5C 772.348,9.5167 787.515,19.1834 803,28.5C 803.833,93.5026 803.667,158.503 802.5,223.5C 787.268,232.608 772.268,241.941 757.5,251.5C 725.5,251.5 693.5,251.5 661.5,251.5C 661.5,234.5 661.5,217.5 661.5,200.5C 690.167,200.5 718.833,200.5 747.5,200.5C 747.5,149.833 747.5,99.1667 747.5,48.5C 718.833,48.5 690.167,48.5 661.5,48.5C 661.5,32.1667 661.5,15.8333 661.5,-0.5 Z"/></g>
<g><path style="opacity:0.993" fill="#d20169" d="M 986.5,-0.5 C 1033.83,-0.5 1081.17,-0.5 1128.5,-0.5C 1128.5,15.8333 1128.5,32.1667 1128.5,48.5C 1099.83,48.5 1071.17,48.5 1042.5,48.5C 1042.5,99.1667 1042.5,149.833 1042.5,200.5C 1071.17,200.5 1099.83,200.5 1128.5,200.5C 1128.5,217.5 1128.5,234.5 1128.5,251.5C 1081.17,251.5 1033.83,251.5 986.5,251.5C 986.5,167.5 986.5,83.5 986.5,-0.5 Z"/></g>
<g><path style="opacity:0.985" fill="#d20069" d="M 1149.5,-0.5 C 1181.17,-0.5 1212.83,-0.5 1244.5,-0.5C 1259.85,9.26688 1275.35,18.9335 1291,28.5C 1291.83,93.5026 1291.67,158.503 1290.5,223.5C 1274.86,232.498 1259.53,241.831 1244.5,251.5C 1212.83,251.5 1181.17,251.5 1149.5,251.5C 1149.5,234.5 1149.5,217.5 1149.5,200.5C 1177.83,200.5 1206.17,200.5 1234.5,200.5C 1234.5,149.833 1234.5,99.1667 1234.5,48.5C 1206.17,48.5 1177.83,48.5 1149.5,48.5C 1149.5,32.1667 1149.5,15.8333 1149.5,-0.5 Z"/></g>
<g><path style="opacity:0.984" fill="#d30069" d="M 1369.5,-0.5 C 1417.17,-0.5 1464.83,-0.5 1512.5,-0.5C 1512.5,16.8333 1512.5,34.1667 1512.5,51.5C 1483.83,51.5 1455.17,51.5 1426.5,51.5C 1426.5,67.8333 1426.5,84.1667 1426.5,100.5C 1455.17,100.5 1483.83,100.5 1512.5,100.5C 1512.5,117.5 1512.5,134.5 1512.5,151.5C 1483.83,151.5 1455.17,151.5 1426.5,151.5C 1426.5,168.5 1426.5,185.5 1426.5,202.5C 1454.5,202.5 1482.5,202.5 1510.5,202.5C 1510.5,218.833 1510.5,235.167 1510.5,251.5C 1463.5,251.5 1416.5,251.5 1369.5,251.5C 1369.5,167.5 1369.5,83.5 1369.5,-0.5 Z"/></g>
<g><path style="opacity:0.984" fill="#d20069" d="M 1530.5,-0.5 C 1578.5,-0.5 1626.5,-0.5 1674.5,-0.5C 1674.5,16.8333 1674.5,34.1667 1674.5,51.5C 1626.5,51.5 1578.5,51.5 1530.5,51.5C 1530.5,34.1667 1530.5,16.8333 1530.5,-0.5 Z"/></g>
<g><path style="opacity:0.984" fill="#d30069" d="M 1736.5,-0.5 C 1738.83,-0.5 1741.17,-0.5 1743.5,-0.5C 1773.57,49.3069 1803.41,99.3069 1833,149.5C 1833.5,183.498 1833.67,217.498 1833.5,251.5C 1832.83,251.5 1832.17,251.5 1831.5,251.5C 1785.29,172.607 1738.62,93.9402 1691.5,15.5C 1706.42,9.74888 1721.42,4.41554 1736.5,-0.5 Z"/></g>
<g><path style="opacity:0.984" fill="#d20069" d="M 1944.5,-0.5 C 1947.17,-0.5 1949.83,-0.5 1952.5,-0.5C 1966.56,4.79864 1980.89,9.63197 1995.5,14C 1995.96,14.414 1996.29,14.914 1996.5,15.5C 1949.82,94.1943 1903.16,172.861 1856.5,251.5C 1855.83,251.5 1855.17,251.5 1854.5,251.5C 1854.33,217.498 1854.5,183.498 1855,149.5C 1885.11,99.61 1914.94,49.61 1944.5,-0.5 Z"/></g>
<g><path style="opacity:0.979" fill="#d20069" d="M 1530.5,100.5 C 1554.83,100.5 1579.17,100.5 1603.5,100.5C 1603.5,117.5 1603.5,134.5 1603.5,151.5C 1579.17,151.5 1554.83,151.5 1530.5,151.5C 1530.5,134.5 1530.5,117.5 1530.5,100.5 Z"/></g>
<g><path style="opacity:0.998" fill="#d20169" d="M 907.5,251.5 C 887.167,251.5 866.833,251.5 846.5,251.5C 846.5,231.5 846.5,211.5 846.5,191.5C 866.833,191.5 887.167,191.5 907.5,191.5C 907.5,211.5 907.5,231.5 907.5,251.5 Z"/></g>
<g><path style="opacity:0.995" fill="#d20069" d="M 1674.5,251.5 C 1627.17,251.5 1579.83,251.5 1532.5,251.5C 1532.5,235.167 1532.5,218.833 1532.5,202.5C 1579.83,202.5 1627.17,202.5 1674.5,202.5C 1674.5,218.833 1674.5,235.167 1674.5,251.5 Z"/></g>
</svg>
